<mxfile host="app.diagrams.net" modified="2023-04-14T14:47:00.253Z" agent="Mozilla/5.0 (Windows NT 10.0; Win64; x64) AppleWebKit/537.36 (KHTML, like Gecko) Chrome/112.0.0.0 Safari/537.36" etag="GNsi84a5jS2yu04fKYC8" version="21.1.8" type="github">
  <diagram name="Page-1" id="8qzcOBuHEEd5GY9sP7C9">
    <mxGraphModel dx="1434" dy="796" grid="1" gridSize="10" guides="1" tooltips="1" connect="1" arrows="1" fold="1" page="1" pageScale="1" pageWidth="1169" pageHeight="827" math="0" shadow="0">
      <root>
        <mxCell id="0" />
        <mxCell id="1" parent="0" />
        <mxCell id="t_risixm4Ss2-IP9dsk7-5" value="" style="rounded=0;whiteSpace=wrap;html=1;fillColor=#f5f5f5;fontColor=#333333;strokeColor=#666666;" vertex="1" parent="1">
          <mxGeometry x="10" width="1150" height="90" as="geometry" />
        </mxCell>
        <mxCell id="t_risixm4Ss2-IP9dsk7-6" value="Affichages" style="shape=partialRectangle;whiteSpace=wrap;html=1;bottom=0;top=0;fillColor=none;" vertex="1" parent="1">
          <mxGeometry x="235" y="50" width="120" height="40" as="geometry" />
        </mxCell>
        <mxCell id="t_risixm4Ss2-IP9dsk7-7" value="Formulaires" style="shape=partialRectangle;whiteSpace=wrap;html=1;bottom=0;top=0;fillColor=none;" vertex="1" parent="1">
          <mxGeometry x="355" y="50" width="120" height="40" as="geometry" />
        </mxCell>
        <mxCell id="t_risixm4Ss2-IP9dsk7-8" value="Modifications" style="shape=partialRectangle;whiteSpace=wrap;html=1;bottom=0;top=0;fillColor=none;" vertex="1" parent="1">
          <mxGeometry x="475" y="50" width="120" height="40" as="geometry" />
        </mxCell>
        <mxCell id="t_risixm4Ss2-IP9dsk7-9" value="Accueil" style="shape=partialRectangle;whiteSpace=wrap;html=1;bottom=0;top=0;fillColor=none;" vertex="1" parent="1">
          <mxGeometry x="115" y="50" width="120" height="40" as="geometry" />
        </mxCell>
        <mxCell id="t_risixm4Ss2-IP9dsk7-11" value="" style="rounded=0;whiteSpace=wrap;html=1;" vertex="1" parent="1">
          <mxGeometry x="305" y="120" width="560" height="120" as="geometry" />
        </mxCell>
        <mxCell id="t_risixm4Ss2-IP9dsk7-12" value="&lt;font style=&quot;font-size: 27px;&quot;&gt;NOM&amp;nbsp; &amp;nbsp;PRENOM&lt;/font&gt;" style="text;html=1;strokeColor=none;fillColor=none;align=center;verticalAlign=middle;whiteSpace=wrap;rounded=0;" vertex="1" parent="1">
          <mxGeometry x="415" y="150" width="340" height="40" as="geometry" />
        </mxCell>
        <mxCell id="t_risixm4Ss2-IP9dsk7-13" value="&lt;i&gt;Fiche information personne&lt;/i&gt;" style="text;html=1;strokeColor=none;fillColor=none;align=center;verticalAlign=middle;whiteSpace=wrap;rounded=0;" vertex="1" parent="1">
          <mxGeometry x="450" y="120" width="260" height="30" as="geometry" />
        </mxCell>
        <mxCell id="t_risixm4Ss2-IP9dsk7-15" value="né(e) le 01/01/2000 (23 ans)" style="text;html=1;strokeColor=none;fillColor=none;align=center;verticalAlign=middle;whiteSpace=wrap;rounded=0;" vertex="1" parent="1">
          <mxGeometry x="492.5" y="180" width="185" height="30" as="geometry" />
        </mxCell>
        <mxCell id="t_risixm4Ss2-IP9dsk7-17" value="&lt;font style=&quot;font-size: 20px;&quot;&gt;Réalisateur&lt;/font&gt;" style="text;html=1;strokeColor=none;fillColor=none;align=center;verticalAlign=middle;whiteSpace=wrap;rounded=0;" vertex="1" parent="1">
          <mxGeometry x="475" y="210" width="220" height="30" as="geometry" />
        </mxCell>
        <mxCell id="t_risixm4Ss2-IP9dsk7-18" value="" style="shape=table;startSize=0;container=1;collapsible=0;childLayout=tableLayout;fontSize=16;columnLines=0;" vertex="1" parent="1">
          <mxGeometry x="148.5" y="270" width="863" height="410" as="geometry" />
        </mxCell>
        <mxCell id="t_risixm4Ss2-IP9dsk7-19" value="" style="shape=tableRow;horizontal=0;startSize=0;swimlaneHead=0;swimlaneBody=0;strokeColor=inherit;top=0;left=0;bottom=0;right=0;collapsible=0;dropTarget=0;fillColor=none;points=[[0,0.5],[1,0.5]];portConstraint=eastwest;fontSize=16;" vertex="1" parent="t_risixm4Ss2-IP9dsk7-18">
          <mxGeometry width="863" height="32" as="geometry" />
        </mxCell>
        <mxCell id="t_risixm4Ss2-IP9dsk7-20" value="Titre&amp;nbsp;" style="shape=partialRectangle;html=1;whiteSpace=wrap;connectable=0;strokeColor=inherit;overflow=hidden;fillColor=none;top=0;left=0;bottom=0;right=0;pointerEvents=1;fontSize=16;strokeWidth=0;" vertex="1" parent="t_risixm4Ss2-IP9dsk7-19">
          <mxGeometry width="276" height="32" as="geometry">
            <mxRectangle width="276" height="32" as="alternateBounds" />
          </mxGeometry>
        </mxCell>
        <mxCell id="t_risixm4Ss2-IP9dsk7-21" value="Année" style="shape=partialRectangle;html=1;whiteSpace=wrap;connectable=0;strokeColor=inherit;overflow=hidden;fillColor=none;top=0;left=0;bottom=0;right=0;pointerEvents=1;fontSize=16;" vertex="1" parent="t_risixm4Ss2-IP9dsk7-19">
          <mxGeometry x="276" width="301" height="32" as="geometry">
            <mxRectangle width="301" height="32" as="alternateBounds" />
          </mxGeometry>
        </mxCell>
        <mxCell id="t_risixm4Ss2-IP9dsk7-22" value="Genre" style="shape=partialRectangle;html=1;whiteSpace=wrap;connectable=0;strokeColor=inherit;overflow=hidden;fillColor=none;top=0;left=0;bottom=0;right=0;pointerEvents=1;fontSize=16;" vertex="1" parent="t_risixm4Ss2-IP9dsk7-19">
          <mxGeometry x="577" width="286" height="32" as="geometry">
            <mxRectangle width="286" height="32" as="alternateBounds" />
          </mxGeometry>
        </mxCell>
        <mxCell id="t_risixm4Ss2-IP9dsk7-24" value="" style="shape=tableRow;horizontal=0;startSize=0;swimlaneHead=0;swimlaneBody=0;strokeColor=inherit;top=0;left=0;bottom=0;right=0;collapsible=0;dropTarget=0;fillColor=none;points=[[0,0.5],[1,0.5]];portConstraint=eastwest;fontSize=16;" vertex="1" parent="t_risixm4Ss2-IP9dsk7-18">
          <mxGeometry y="32" width="863" height="34" as="geometry" />
        </mxCell>
        <mxCell id="t_risixm4Ss2-IP9dsk7-25" value="" style="shape=partialRectangle;html=1;whiteSpace=wrap;connectable=0;overflow=hidden;top=0;left=0;bottom=0;right=0;pointerEvents=1;fontSize=16;strokeWidth=0;fillColor=none;strokeColor=inherit;" vertex="1" parent="t_risixm4Ss2-IP9dsk7-24">
          <mxGeometry width="276" height="34" as="geometry">
            <mxRectangle width="276" height="34" as="alternateBounds" />
          </mxGeometry>
        </mxCell>
        <mxCell id="t_risixm4Ss2-IP9dsk7-26" value="" style="shape=partialRectangle;html=1;whiteSpace=wrap;connectable=0;strokeColor=inherit;overflow=hidden;fillColor=none;top=0;left=0;bottom=0;right=0;pointerEvents=1;fontSize=16;" vertex="1" parent="t_risixm4Ss2-IP9dsk7-24">
          <mxGeometry x="276" width="301" height="34" as="geometry">
            <mxRectangle width="301" height="34" as="alternateBounds" />
          </mxGeometry>
        </mxCell>
        <mxCell id="t_risixm4Ss2-IP9dsk7-27" value="" style="shape=partialRectangle;html=1;whiteSpace=wrap;connectable=0;strokeColor=inherit;overflow=hidden;fillColor=none;top=0;left=0;bottom=0;right=0;pointerEvents=1;fontSize=16;" vertex="1" parent="t_risixm4Ss2-IP9dsk7-24">
          <mxGeometry x="577" width="286" height="34" as="geometry">
            <mxRectangle width="286" height="34" as="alternateBounds" />
          </mxGeometry>
        </mxCell>
        <mxCell id="t_risixm4Ss2-IP9dsk7-29" value="" style="shape=tableRow;horizontal=0;startSize=0;swimlaneHead=0;swimlaneBody=0;strokeColor=inherit;top=0;left=0;bottom=0;right=0;collapsible=0;dropTarget=0;fillColor=none;points=[[0,0.5],[1,0.5]];portConstraint=eastwest;fontSize=16;" vertex="1" parent="t_risixm4Ss2-IP9dsk7-18">
          <mxGeometry y="66" width="863" height="39" as="geometry" />
        </mxCell>
        <mxCell id="t_risixm4Ss2-IP9dsk7-30" value="" style="shape=partialRectangle;html=1;whiteSpace=wrap;connectable=0;overflow=hidden;top=0;left=0;bottom=0;right=0;pointerEvents=1;fontSize=16;strokeWidth=0;fillColor=#f5f5f5;strokeColor=#666666;fontColor=#333333;" vertex="1" parent="t_risixm4Ss2-IP9dsk7-29">
          <mxGeometry width="276" height="39" as="geometry">
            <mxRectangle width="276" height="39" as="alternateBounds" />
          </mxGeometry>
        </mxCell>
        <mxCell id="t_risixm4Ss2-IP9dsk7-31" value="" style="shape=partialRectangle;html=1;whiteSpace=wrap;connectable=0;strokeColor=#666666;overflow=hidden;fillColor=#f5f5f5;top=0;left=0;bottom=0;right=0;pointerEvents=1;fontSize=16;fontColor=#333333;" vertex="1" parent="t_risixm4Ss2-IP9dsk7-29">
          <mxGeometry x="276" width="301" height="39" as="geometry">
            <mxRectangle width="301" height="39" as="alternateBounds" />
          </mxGeometry>
        </mxCell>
        <mxCell id="t_risixm4Ss2-IP9dsk7-32" value="" style="shape=partialRectangle;html=1;whiteSpace=wrap;connectable=0;strokeColor=#666666;overflow=hidden;fillColor=#f5f5f5;top=0;left=0;bottom=0;right=0;pointerEvents=1;fontSize=16;fontColor=#333333;" vertex="1" parent="t_risixm4Ss2-IP9dsk7-29">
          <mxGeometry x="577" width="286" height="39" as="geometry">
            <mxRectangle width="286" height="39" as="alternateBounds" />
          </mxGeometry>
        </mxCell>
        <mxCell id="t_risixm4Ss2-IP9dsk7-34" style="shape=tableRow;horizontal=0;startSize=0;swimlaneHead=0;swimlaneBody=0;strokeColor=inherit;top=0;left=0;bottom=0;right=0;collapsible=0;dropTarget=0;fillColor=none;points=[[0,0.5],[1,0.5]];portConstraint=eastwest;fontSize=16;" vertex="1" parent="t_risixm4Ss2-IP9dsk7-18">
          <mxGeometry y="105" width="863" height="38" as="geometry" />
        </mxCell>
        <mxCell id="t_risixm4Ss2-IP9dsk7-35" style="shape=partialRectangle;html=1;whiteSpace=wrap;connectable=0;overflow=hidden;top=0;left=0;bottom=0;right=0;pointerEvents=1;fontSize=16;strokeWidth=0;fillColor=none;strokeColor=inherit;" vertex="1" parent="t_risixm4Ss2-IP9dsk7-34">
          <mxGeometry width="276" height="38" as="geometry">
            <mxRectangle width="276" height="38" as="alternateBounds" />
          </mxGeometry>
        </mxCell>
        <mxCell id="t_risixm4Ss2-IP9dsk7-36" style="shape=partialRectangle;html=1;whiteSpace=wrap;connectable=0;strokeColor=inherit;overflow=hidden;fillColor=none;top=0;left=0;bottom=0;right=0;pointerEvents=1;fontSize=16;" vertex="1" parent="t_risixm4Ss2-IP9dsk7-34">
          <mxGeometry x="276" width="301" height="38" as="geometry">
            <mxRectangle width="301" height="38" as="alternateBounds" />
          </mxGeometry>
        </mxCell>
        <mxCell id="t_risixm4Ss2-IP9dsk7-37" style="shape=partialRectangle;html=1;whiteSpace=wrap;connectable=0;strokeColor=inherit;overflow=hidden;fillColor=none;top=0;left=0;bottom=0;right=0;pointerEvents=1;fontSize=16;" vertex="1" parent="t_risixm4Ss2-IP9dsk7-34">
          <mxGeometry x="577" width="286" height="38" as="geometry">
            <mxRectangle width="286" height="38" as="alternateBounds" />
          </mxGeometry>
        </mxCell>
        <mxCell id="t_risixm4Ss2-IP9dsk7-39" style="shape=tableRow;horizontal=0;startSize=0;swimlaneHead=0;swimlaneBody=0;strokeColor=inherit;top=0;left=0;bottom=0;right=0;collapsible=0;dropTarget=0;fillColor=none;points=[[0,0.5],[1,0.5]];portConstraint=eastwest;fontSize=16;" vertex="1" parent="t_risixm4Ss2-IP9dsk7-18">
          <mxGeometry y="143" width="863" height="37" as="geometry" />
        </mxCell>
        <mxCell id="t_risixm4Ss2-IP9dsk7-40" style="shape=partialRectangle;html=1;whiteSpace=wrap;connectable=0;overflow=hidden;top=0;left=0;bottom=0;right=0;pointerEvents=1;fontSize=16;strokeWidth=0;fillColor=#f5f5f5;strokeColor=#666666;fontColor=#333333;" vertex="1" parent="t_risixm4Ss2-IP9dsk7-39">
          <mxGeometry width="276" height="37" as="geometry">
            <mxRectangle width="276" height="37" as="alternateBounds" />
          </mxGeometry>
        </mxCell>
        <mxCell id="t_risixm4Ss2-IP9dsk7-41" style="shape=partialRectangle;html=1;whiteSpace=wrap;connectable=0;strokeColor=#666666;overflow=hidden;fillColor=#f5f5f5;top=0;left=0;bottom=0;right=0;pointerEvents=1;fontSize=16;fontColor=#333333;" vertex="1" parent="t_risixm4Ss2-IP9dsk7-39">
          <mxGeometry x="276" width="301" height="37" as="geometry">
            <mxRectangle width="301" height="37" as="alternateBounds" />
          </mxGeometry>
        </mxCell>
        <mxCell id="t_risixm4Ss2-IP9dsk7-42" style="shape=partialRectangle;html=1;whiteSpace=wrap;connectable=0;strokeColor=#666666;overflow=hidden;fillColor=#f5f5f5;top=0;left=0;bottom=0;right=0;pointerEvents=1;fontSize=16;fontColor=#333333;" vertex="1" parent="t_risixm4Ss2-IP9dsk7-39">
          <mxGeometry x="577" width="286" height="37" as="geometry">
            <mxRectangle width="286" height="37" as="alternateBounds" />
          </mxGeometry>
        </mxCell>
        <mxCell id="t_risixm4Ss2-IP9dsk7-44" style="shape=tableRow;horizontal=0;startSize=0;swimlaneHead=0;swimlaneBody=0;strokeColor=inherit;top=0;left=0;bottom=0;right=0;collapsible=0;dropTarget=0;fillColor=none;points=[[0,0.5],[1,0.5]];portConstraint=eastwest;fontSize=16;" vertex="1" parent="t_risixm4Ss2-IP9dsk7-18">
          <mxGeometry y="180" width="863" height="39" as="geometry" />
        </mxCell>
        <mxCell id="t_risixm4Ss2-IP9dsk7-45" style="shape=partialRectangle;html=1;whiteSpace=wrap;connectable=0;overflow=hidden;top=0;left=0;bottom=0;right=0;pointerEvents=1;fontSize=16;strokeWidth=0;fillColor=none;strokeColor=inherit;" vertex="1" parent="t_risixm4Ss2-IP9dsk7-44">
          <mxGeometry width="276" height="39" as="geometry">
            <mxRectangle width="276" height="39" as="alternateBounds" />
          </mxGeometry>
        </mxCell>
        <mxCell id="t_risixm4Ss2-IP9dsk7-46" style="shape=partialRectangle;html=1;whiteSpace=wrap;connectable=0;strokeColor=inherit;overflow=hidden;fillColor=none;top=0;left=0;bottom=0;right=0;pointerEvents=1;fontSize=16;" vertex="1" parent="t_risixm4Ss2-IP9dsk7-44">
          <mxGeometry x="276" width="301" height="39" as="geometry">
            <mxRectangle width="301" height="39" as="alternateBounds" />
          </mxGeometry>
        </mxCell>
        <mxCell id="t_risixm4Ss2-IP9dsk7-47" style="shape=partialRectangle;html=1;whiteSpace=wrap;connectable=0;strokeColor=inherit;overflow=hidden;fillColor=none;top=0;left=0;bottom=0;right=0;pointerEvents=1;fontSize=16;" vertex="1" parent="t_risixm4Ss2-IP9dsk7-44">
          <mxGeometry x="577" width="286" height="39" as="geometry">
            <mxRectangle width="286" height="39" as="alternateBounds" />
          </mxGeometry>
        </mxCell>
        <mxCell id="t_risixm4Ss2-IP9dsk7-49" style="shape=tableRow;horizontal=0;startSize=0;swimlaneHead=0;swimlaneBody=0;strokeColor=#666666;top=0;left=0;bottom=0;right=0;collapsible=0;dropTarget=0;fillColor=#f5f5f5;points=[[0,0.5],[1,0.5]];portConstraint=eastwest;fontSize=16;fontColor=#333333;" vertex="1" parent="t_risixm4Ss2-IP9dsk7-18">
          <mxGeometry y="219" width="863" height="39" as="geometry" />
        </mxCell>
        <mxCell id="t_risixm4Ss2-IP9dsk7-50" style="shape=partialRectangle;html=1;whiteSpace=wrap;connectable=0;overflow=hidden;top=0;left=0;bottom=0;right=0;pointerEvents=1;fontSize=16;strokeWidth=0;fillColor=none;strokeColor=inherit;" vertex="1" parent="t_risixm4Ss2-IP9dsk7-49">
          <mxGeometry width="276" height="39" as="geometry">
            <mxRectangle width="276" height="39" as="alternateBounds" />
          </mxGeometry>
        </mxCell>
        <mxCell id="t_risixm4Ss2-IP9dsk7-51" style="shape=partialRectangle;html=1;whiteSpace=wrap;connectable=0;strokeColor=inherit;overflow=hidden;fillColor=none;top=0;left=0;bottom=0;right=0;pointerEvents=1;fontSize=16;" vertex="1" parent="t_risixm4Ss2-IP9dsk7-49">
          <mxGeometry x="276" width="301" height="39" as="geometry">
            <mxRectangle width="301" height="39" as="alternateBounds" />
          </mxGeometry>
        </mxCell>
        <mxCell id="t_risixm4Ss2-IP9dsk7-52" style="shape=partialRectangle;html=1;whiteSpace=wrap;connectable=0;strokeColor=inherit;overflow=hidden;fillColor=none;top=0;left=0;bottom=0;right=0;pointerEvents=1;fontSize=16;" vertex="1" parent="t_risixm4Ss2-IP9dsk7-49">
          <mxGeometry x="577" width="286" height="39" as="geometry">
            <mxRectangle width="286" height="39" as="alternateBounds" />
          </mxGeometry>
        </mxCell>
        <mxCell id="t_risixm4Ss2-IP9dsk7-54" style="shape=tableRow;horizontal=0;startSize=0;swimlaneHead=0;swimlaneBody=0;strokeColor=inherit;top=0;left=0;bottom=0;right=0;collapsible=0;dropTarget=0;fillColor=none;points=[[0,0.5],[1,0.5]];portConstraint=eastwest;fontSize=16;" vertex="1" parent="t_risixm4Ss2-IP9dsk7-18">
          <mxGeometry y="258" width="863" height="38" as="geometry" />
        </mxCell>
        <mxCell id="t_risixm4Ss2-IP9dsk7-55" style="shape=partialRectangle;html=1;whiteSpace=wrap;connectable=0;overflow=hidden;top=0;left=0;bottom=0;right=0;pointerEvents=1;fontSize=16;strokeWidth=0;fillColor=none;strokeColor=inherit;" vertex="1" parent="t_risixm4Ss2-IP9dsk7-54">
          <mxGeometry width="276" height="38" as="geometry">
            <mxRectangle width="276" height="38" as="alternateBounds" />
          </mxGeometry>
        </mxCell>
        <mxCell id="t_risixm4Ss2-IP9dsk7-56" style="shape=partialRectangle;html=1;whiteSpace=wrap;connectable=0;strokeColor=inherit;overflow=hidden;fillColor=none;top=0;left=0;bottom=0;right=0;pointerEvents=1;fontSize=16;" vertex="1" parent="t_risixm4Ss2-IP9dsk7-54">
          <mxGeometry x="276" width="301" height="38" as="geometry">
            <mxRectangle width="301" height="38" as="alternateBounds" />
          </mxGeometry>
        </mxCell>
        <mxCell id="t_risixm4Ss2-IP9dsk7-57" style="shape=partialRectangle;html=1;whiteSpace=wrap;connectable=0;strokeColor=inherit;overflow=hidden;fillColor=none;top=0;left=0;bottom=0;right=0;pointerEvents=1;fontSize=16;" vertex="1" parent="t_risixm4Ss2-IP9dsk7-54">
          <mxGeometry x="577" width="286" height="38" as="geometry">
            <mxRectangle width="286" height="38" as="alternateBounds" />
          </mxGeometry>
        </mxCell>
        <mxCell id="t_risixm4Ss2-IP9dsk7-59" style="shape=tableRow;horizontal=0;startSize=0;swimlaneHead=0;swimlaneBody=0;strokeColor=inherit;top=0;left=0;bottom=0;right=0;collapsible=0;dropTarget=0;fillColor=none;points=[[0,0.5],[1,0.5]];portConstraint=eastwest;fontSize=16;" vertex="1" parent="t_risixm4Ss2-IP9dsk7-18">
          <mxGeometry y="296" width="863" height="38" as="geometry" />
        </mxCell>
        <mxCell id="t_risixm4Ss2-IP9dsk7-60" style="shape=partialRectangle;html=1;whiteSpace=wrap;connectable=0;overflow=hidden;top=0;left=0;bottom=0;right=0;pointerEvents=1;fontSize=16;strokeWidth=0;fillColor=#f5f5f5;strokeColor=#666666;fontColor=#333333;" vertex="1" parent="t_risixm4Ss2-IP9dsk7-59">
          <mxGeometry width="276" height="38" as="geometry">
            <mxRectangle width="276" height="38" as="alternateBounds" />
          </mxGeometry>
        </mxCell>
        <mxCell id="t_risixm4Ss2-IP9dsk7-61" style="shape=partialRectangle;html=1;whiteSpace=wrap;connectable=0;strokeColor=#666666;overflow=hidden;fillColor=#f5f5f5;top=0;left=0;bottom=0;right=0;pointerEvents=1;fontSize=16;fontColor=#333333;" vertex="1" parent="t_risixm4Ss2-IP9dsk7-59">
          <mxGeometry x="276" width="301" height="38" as="geometry">
            <mxRectangle width="301" height="38" as="alternateBounds" />
          </mxGeometry>
        </mxCell>
        <mxCell id="t_risixm4Ss2-IP9dsk7-62" style="shape=partialRectangle;html=1;whiteSpace=wrap;connectable=0;strokeColor=#666666;overflow=hidden;fillColor=#f5f5f5;top=0;left=0;bottom=0;right=0;pointerEvents=1;fontSize=16;fontColor=#333333;" vertex="1" parent="t_risixm4Ss2-IP9dsk7-59">
          <mxGeometry x="577" width="286" height="38" as="geometry">
            <mxRectangle width="286" height="38" as="alternateBounds" />
          </mxGeometry>
        </mxCell>
        <mxCell id="t_risixm4Ss2-IP9dsk7-64" style="shape=tableRow;horizontal=0;startSize=0;swimlaneHead=0;swimlaneBody=0;strokeColor=inherit;top=0;left=0;bottom=0;right=0;collapsible=0;dropTarget=0;fillColor=none;points=[[0,0.5],[1,0.5]];portConstraint=eastwest;fontSize=16;" vertex="1" parent="t_risixm4Ss2-IP9dsk7-18">
          <mxGeometry y="334" width="863" height="39" as="geometry" />
        </mxCell>
        <mxCell id="t_risixm4Ss2-IP9dsk7-65" style="shape=partialRectangle;html=1;whiteSpace=wrap;connectable=0;overflow=hidden;top=0;left=0;bottom=0;right=0;pointerEvents=1;fontSize=16;strokeWidth=0;fillColor=none;strokeColor=inherit;" vertex="1" parent="t_risixm4Ss2-IP9dsk7-64">
          <mxGeometry width="276" height="39" as="geometry">
            <mxRectangle width="276" height="39" as="alternateBounds" />
          </mxGeometry>
        </mxCell>
        <mxCell id="t_risixm4Ss2-IP9dsk7-66" style="shape=partialRectangle;html=1;whiteSpace=wrap;connectable=0;strokeColor=inherit;overflow=hidden;fillColor=none;top=0;left=0;bottom=0;right=0;pointerEvents=1;fontSize=16;" vertex="1" parent="t_risixm4Ss2-IP9dsk7-64">
          <mxGeometry x="276" width="301" height="39" as="geometry">
            <mxRectangle width="301" height="39" as="alternateBounds" />
          </mxGeometry>
        </mxCell>
        <mxCell id="t_risixm4Ss2-IP9dsk7-67" style="shape=partialRectangle;html=1;whiteSpace=wrap;connectable=0;strokeColor=inherit;overflow=hidden;fillColor=none;top=0;left=0;bottom=0;right=0;pointerEvents=1;fontSize=16;" vertex="1" parent="t_risixm4Ss2-IP9dsk7-64">
          <mxGeometry x="577" width="286" height="39" as="geometry">
            <mxRectangle width="286" height="39" as="alternateBounds" />
          </mxGeometry>
        </mxCell>
        <mxCell id="t_risixm4Ss2-IP9dsk7-69" style="shape=tableRow;horizontal=0;startSize=0;swimlaneHead=0;swimlaneBody=0;strokeColor=inherit;top=0;left=0;bottom=0;right=0;collapsible=0;dropTarget=0;fillColor=none;points=[[0,0.5],[1,0.5]];portConstraint=eastwest;fontSize=16;" vertex="1" parent="t_risixm4Ss2-IP9dsk7-18">
          <mxGeometry y="373" width="863" height="37" as="geometry" />
        </mxCell>
        <mxCell id="t_risixm4Ss2-IP9dsk7-70" style="shape=partialRectangle;html=1;whiteSpace=wrap;connectable=0;overflow=hidden;top=0;left=0;bottom=0;right=0;pointerEvents=1;fontSize=16;strokeWidth=0;fillColor=#f5f5f5;strokeColor=#666666;fontColor=#333333;" vertex="1" parent="t_risixm4Ss2-IP9dsk7-69">
          <mxGeometry width="276" height="37" as="geometry">
            <mxRectangle width="276" height="37" as="alternateBounds" />
          </mxGeometry>
        </mxCell>
        <mxCell id="t_risixm4Ss2-IP9dsk7-71" value="" style="shape=partialRectangle;html=1;whiteSpace=wrap;connectable=0;strokeColor=#666666;overflow=hidden;fillColor=#f5f5f5;top=0;left=0;bottom=0;right=0;pointerEvents=1;fontSize=16;fontColor=#333333;" vertex="1" parent="t_risixm4Ss2-IP9dsk7-69">
          <mxGeometry x="276" width="301" height="37" as="geometry">
            <mxRectangle width="301" height="37" as="alternateBounds" />
          </mxGeometry>
        </mxCell>
        <mxCell id="t_risixm4Ss2-IP9dsk7-72" style="shape=partialRectangle;html=1;whiteSpace=wrap;connectable=0;strokeColor=#666666;overflow=hidden;fillColor=#f5f5f5;top=0;left=0;bottom=0;right=0;pointerEvents=1;fontSize=16;fontColor=#333333;" vertex="1" parent="t_risixm4Ss2-IP9dsk7-69">
          <mxGeometry x="577" width="286" height="37" as="geometry">
            <mxRectangle width="286" height="37" as="alternateBounds" />
          </mxGeometry>
        </mxCell>
        <mxCell id="t_risixm4Ss2-IP9dsk7-74" value="FOOTER" style="rounded=0;whiteSpace=wrap;html=1;resizeWidth=0;" vertex="1" parent="1">
          <mxGeometry x="10" y="767" width="1150" height="60" as="geometry" />
        </mxCell>
      </root>
    </mxGraphModel>
  </diagram>
</mxfile>
